<?xml version="1.0" encoding="UTF-8"?><svg id="Layer_1" xmlns="http://www.w3.org/2000/svg" width="330" height="49" viewBox="0 0 194.04 34.97"><defs><style>.cls-1{fill:#1d1d1b;}</style></defs><path class="cls-1" d="M49.97,20.94v-7.6h12.73c-1.63-5.24-6.46-9.07-12.24-9.07-7.11,0-12.87,5.76-12.87,12.87s5.76,12.87,12.87,12.87c5.78,0,10.61-3.83,12.24-9.07h-12.73Z"/><path class="cls-1" d="M37.54,16.65c-.26-6.88-5.88-12.38-12.83-12.38s-12.56,5.51-12.83,12.38h-.05v13.37h9.07v-13.37h7.6v13.37h9.07v-13.37h-.05Z"/><circle class="cls-1" cx="61.56" cy="29.02" r="1.14"/><path class="cls-1" d="M84.16,22.07h-2.14l-.82-2.41h-3.78l-.82,2.41h-2.11l3.6-9.86h2.47l3.6,9.86ZM77.88,18.14h2.85l-1.43-4.3-1.42,4.3Z"/><path class="cls-1" d="M87.68,20.42h5.2v1.66h-7.26v-9.86h2.06v8.2Z"/><path class="cls-1" d="M101.57,12.21l-3.59,9.86h-2.41l-3.6-9.86h2.18l2.08,6.28.57,1.94.55-1.93,2.09-6.29h2.12Z"/><path class="cls-1" d="M105.12,12.21v9.86h-2.06v-9.86h2.06Z"/><path class="cls-1" d="M111.3,12.06c.9,0,1.68.15,2.36.46.68.31,1.26.77,1.73,1.38l-1.15,1.33c-.41-.52-.85-.9-1.34-1.14-.48-.24-1.04-.37-1.68-.37-.42,0-.76.05-1.04.16-.27.11-.47.25-.6.43-.13.18-.19.38-.19.6,0,.27.1.5.31.68.21.18.57.34,1.08.46l1.84.42c.98.22,1.68.55,2.1.98s.64.99.64,1.68c0,.65-.17,1.2-.51,1.67-.34.46-.81.82-1.42,1.06-.61.24-1.31.37-2.09.37-.69,0-1.32-.08-1.89-.25-.57-.16-1.08-.39-1.53-.68-.45-.29-.82-.62-1.12-1l1.17-1.39c.23.32.51.6.85.85s.73.45,1.16.59c.43.14.89.22,1.37.22.41,0,.75-.05,1.04-.14.28-.09.5-.23.64-.4s.22-.39.22-.63-.09-.48-.26-.66c-.17-.18-.5-.33-.96-.43l-2-.45c-.58-.14-1.07-.32-1.49-.55s-.73-.51-.94-.87c-.21-.35-.32-.77-.32-1.26,0-.59.16-1.12.48-1.58s.78-.84,1.38-1.11,1.33-.41,2.17-.41Z"/><path class="cls-1" d="M125.7,12.21c1.54,0,2.74.43,3.59,1.28.85.85,1.27,2.07,1.27,3.65s-.42,2.79-1.27,3.65c-.85.86-2.04,1.29-3.59,1.29h-3.81v-9.86h3.81ZM125.6,20.43c.94,0,1.64-.28,2.11-.84.47-.56.71-1.38.71-2.44s-.24-1.88-.71-2.44c-.47-.56-1.18-.84-2.11-.84h-1.64v6.58h1.64Z"/><path class="cls-1" d="M132.63,22.07v-9.86h7.4v1.66h-5.33v2.45h4.2v1.58h-4.2v2.51h5.54v1.66h-7.61Z"/><path class="cls-1" d="M145.7,12.06c.9,0,1.68.15,2.36.46.68.31,1.26.77,1.73,1.38l-1.15,1.33c-.41-.52-.85-.9-1.34-1.14-.48-.24-1.04-.37-1.68-.37-.42,0-.76.05-1.04.16-.27.11-.47.25-.6.43-.13.18-.19.38-.19.6,0,.27.1.5.31.68.21.18.57.34,1.08.46l1.84.42c.98.22,1.68.55,2.1.98s.64.99.64,1.68c0,.65-.17,1.2-.51,1.67-.34.46-.81.82-1.42,1.06-.61.24-1.31.37-2.09.37-.69,0-1.32-.08-1.89-.25-.57-.16-1.08-.39-1.53-.68-.45-.29-.82-.62-1.12-1l1.17-1.39c.23.32.51.6.85.85s.73.45,1.16.59c.43.14.89.22,1.37.22.41,0,.75-.05,1.04-.14.28-.09.5-.23.64-.4s.22-.39.22-.63-.09-.48-.26-.66c-.17-.18-.5-.33-.96-.43l-2-.45c-.58-.14-1.07-.32-1.49-.55s-.73-.51-.94-.87c-.21-.35-.32-.77-.32-1.26,0-.59.16-1.12.48-1.58s.78-.84,1.38-1.11,1.33-.41,2.17-.41Z"/><path class="cls-1" d="M153.78,12.21v9.86h-2.06v-9.86h2.06Z"/><path class="cls-1" d="M160.4,22.22c-.91,0-1.7-.2-2.38-.6s-1.21-.98-1.59-1.73-.57-1.67-.57-2.73.2-1.97.6-2.73c.4-.76.96-1.35,1.69-1.76s1.58-.61,2.56-.61c1.07,0,1.93.2,2.59.59.66.39,1.18,1,1.57,1.83l-1.91.82c-.16-.53-.43-.92-.81-1.17-.38-.25-.85-.38-1.41-.38s-1.04.13-1.45.4-.72.65-.94,1.15c-.22.5-.33,1.12-.33,1.85s.1,1.38.31,1.89c.21.51.52.9.93,1.15.41.25.92.38,1.53.38.33,0,.63-.04.92-.12s.53-.2.74-.36c.21-.16.37-.36.49-.61.12-.25.18-.54.18-.87v-.22h-2.59v-1.51h4.36v5.2h-1.45l-.15-2.15.36.25c-.22.66-.61,1.16-1.16,1.52-.55.35-1.25.53-2.08.53Z"/><path class="cls-1" d="M175.63,12.21v9.86h-2.36l-3.45-5.8-.85-1.61h-.01l.06,1.7v5.71h-1.85v-9.86h2.35l3.45,5.78.85,1.63h.03l-.06-1.7v-5.71h1.85Z"/><path class="cls-1" d="M179.52,12.65c.39,0,.72.06.99.17.27.11.49.27.65.46s.28.41.35.65l-1.12.4c-.06-.26-.16-.46-.3-.59-.14-.13-.33-.2-.57-.2-.22,0-.41.05-.57.15-.16.1-.28.26-.36.46-.08.21-.12.46-.12.77s.04.56.13.77.21.35.37.45c.16.1.35.15.56.15.17,0,.32-.03.44-.09.12-.06.22-.15.3-.27s.13-.26.16-.42l1.08.35c-.06.26-.18.49-.36.69-.17.2-.4.35-.67.46-.27.11-.59.17-.95.17-.45,0-.84-.09-1.19-.27-.34-.18-.61-.44-.79-.77-.19-.34-.28-.74-.28-1.22s.09-.88.28-1.22c.19-.34.45-.6.78-.78.34-.18.72-.27,1.16-.27Z"/><path class="cls-1" d="M184.44,12.65c.44,0,.83.09,1.16.27.33.18.6.44.78.78.19.34.28.74.28,1.22s-.09.88-.28,1.22c-.19.34-.45.6-.78.78-.33.18-.72.27-1.16.27s-.82-.09-1.16-.27c-.34-.18-.6-.44-.79-.78-.19-.34-.28-.74-.28-1.22s.09-.88.28-1.22c.19-.34.45-.6.79-.78.34-.18.72-.27,1.16-.27ZM184.44,13.54c-.22,0-.41.05-.56.15-.15.1-.27.25-.35.46-.08.2-.12.46-.12.77s.04.56.12.77.2.36.35.46c.15.1.34.15.56.15s.4-.05.55-.15c.15-.1.27-.25.35-.46.08-.2.12-.46.12-.77s-.04-.56-.12-.77c-.08-.2-.2-.36-.35-.46-.15-.1-.34-.15-.55-.15Z"/></svg>